<svg id="visual" viewBox="0 0 900 600" width="900" height="600" xmlns="http://www.w3.org/2000/svg" xmlns:xlink="http://www.w3.org/1999/xlink" version="1.1"><path d="M0 351L21.5 353.7C43 356.3 86 361.7 128.8 365.3C171.7 369 214.3 371 257.2 384.3C300 397.7 343 422.3 385.8 431.7C428.7 441 471.3 435 514.2 428.5C557 422 600 415 642.8 408.8C685.7 402.7 728.3 397.3 771.2 390.3C814 383.3 857 374.7 878.5 370.3L900 366L900 601L878.5 601C857 601 814 601 771.2 601C728.3 601 685.7 601 642.8 601C600 601 557 601 514.2 601C471.3 601 428.7 601 385.8 601C343 601 300 601 257.2 601C214.3 601 171.7 601 128.8 601C86 601 43 601 21.5 601L0 601Z" fill="#fa7268"></path><path d="M0 424L21.5 422.3C43 420.7 86 417.3 128.8 425.3C171.7 433.3 214.3 452.7 257.2 451C300 449.3 343 426.7 385.8 419.7C428.7 412.7 471.3 421.3 514.2 423.2C557 425 600 420 642.8 419C685.7 418 728.3 421 771.2 423.5C814 426 857 428 878.5 429L900 430L900 601L878.5 601C857 601 814 601 771.2 601C728.3 601 685.7 601 642.8 601C600 601 557 601 514.2 601C471.3 601 428.7 601 385.8 601C343 601 300 601 257.2 601C214.3 601 171.7 601 128.8 601C86 601 43 601 21.5 601L0 601Z" fill="#ef5f67"></path><path d="M0 444L21.5 444.3C43 444.7 86 445.3 128.8 446.7C171.7 448 214.3 450 257.2 460.8C300 471.7 343 491.3 385.8 491.3C428.7 491.3 471.3 471.7 514.2 469.5C557 467.3 600 482.7 642.8 482.2C685.7 481.7 728.3 465.3 771.2 464.3C814 463.3 857 477.7 878.5 484.8L900 492L900 601L878.5 601C857 601 814 601 771.2 601C728.3 601 685.7 601 642.8 601C600 601 557 601 514.2 601C471.3 601 428.7 601 385.8 601C343 601 300 601 257.2 601C214.3 601 171.7 601 128.8 601C86 601 43 601 21.5 601L0 601Z" fill="#e34c67"></path><path d="M0 482L21.5 483C43 484 86 486 128.8 487.3C171.7 488.7 214.3 489.3 257.2 492.2C300 495 343 500 385.8 507C428.7 514 471.3 523 514.2 523.8C557 524.7 600 517.3 642.8 510.7C685.7 504 728.3 498 771.2 494.3C814 490.7 857 489.3 878.5 488.7L900 488L900 601L878.5 601C857 601 814 601 771.2 601C728.3 601 685.7 601 642.8 601C600 601 557 601 514.2 601C471.3 601 428.7 601 385.8 601C343 601 300 601 257.2 601C214.3 601 171.7 601 128.8 601C86 601 43 601 21.5 601L0 601Z" fill="#d53867"></path><path d="M0 541L21.5 539.3C43 537.7 86 534.3 128.8 535C171.7 535.7 214.3 540.3 257.2 546.8C300 553.3 343 561.7 385.8 563C428.7 564.3 471.3 558.7 514.2 554C557 549.3 600 545.7 642.8 544.7C685.7 543.7 728.3 545.3 771.2 547.5C814 549.7 857 552.3 878.5 553.7L900 555L900 601L878.5 601C857 601 814 601 771.2 601C728.3 601 685.7 601 642.8 601C600 601 557 601 514.2 601C471.3 601 428.7 601 385.8 601C343 601 300 601 257.2 601C214.3 601 171.7 601 128.8 601C86 601 43 601 21.5 601L0 601Z" fill="#c62368"></path></svg>